<?xml version="1.0" encoding="utf-8"?>
<!-- Generator: Adobe Illustrator 21.0.0, SVG Export Plug-In . SVG Version: 6.00 Build 0)  -->
<svg version="1.1" id="Layer_1" xmlns="http://www.w3.org/2000/svg" xmlns:xlink="http://www.w3.org/1999/xlink" x="0px" y="0px"
	 viewBox="0 0 1000 1000" style="enable-background:new 0 0 1000 1000;" xml:space="preserve">
<style type="text/css">
	.st0{fill:#FFFFFF;}
</style>
<g>
	<path class="st0" d="M61.4,676.7c0-45.2,0-51-31.3-71.8L19.7,598c-4.6-4.6-4.6-17.4,1.2-20.8c26.6-9.3,92.6-39.4,119.3-56.7
		c5.8,0,10.4,2.3,11.6,6.9c-2.3,40.5-4.6,96.1-4.6,143.6v208.4c0,83.4,2.3,95,44,100.7l24.3,3.5c8.1,5.8,5.8,25.5-2.3,29
		c-34.7-2.3-68.3-3.5-108.9-3.5c-41.7,0-76.4,1.2-108.9,3.5c-8.1-3.5-10.4-23.2-2.3-29l24.3-3.5c42.8-5.8,44-17.4,44-100.7V676.7z
		 M157.5,346.7c0,41.7-28.9,60.2-61.4,60.2c-35.9,0-59.1-26.6-59.1-57.9c0-38.2,27.8-62.5,62.5-62.5S157.5,314.3,157.5,346.7z"/>
	<path class="st0" d="M374,601.4c-19.7,0-19.7,2.3-19.7,33.6v244.3c0,83.4,2.3,97.3,44,100.7l41.7,3.5c8.1,5.8,5.8,25.5-2.3,29
		c-52.1-2.3-85.7-3.5-126.2-3.5c-41.7,0-76.4,1.2-111.2,3.5c-8.1-3.5-10.4-23.2-2.3-29l26.6-3.5c42.8-5.8,44-17.4,44-100.7V635
		c0-31.3,0-33.6-23.2-33.6H205c-6.9-4.6-8.1-15.1-3.5-22l49.8-24.3c9.3-4.6,17.4-11.6,17.4-23.2c0-67.2,8.1-139,35.9-203.8
		c29-66,93.8-147.1,208.4-147.1c61.4,0,113.5,27.8,113.5,69.5c0,23.2-22,41.7-44,41.7c-12.7,0-19.7-4.6-27.8-13.9
		c-22-25.5-54.4-51-92.6-51c-35.9,0-64.8,22-82.2,63.7c-20.8,53.3-25.5,137.8-25.5,195.7v33.6c0,31.3,0,32.4,19.7,32.4h132
		c12.7,11.6,4.6,44-8.1,48.6H374z"/>
</g>
</svg>
